<?xml version="1.0" encoding="UTF-8"?>
<svg viewBox="0 0 200 60" xmlns="http://www.w3.org/2000/svg">
 <defs>
  <linearGradient id="b" y2="100%">
   <stop stop-color="#8b5cf6" offset="0"/>
   <stop stop-color="#a855f7" offset=".5"/>
   <stop stop-color="#c084fc" offset="1"/>
  </linearGradient>
  <linearGradient id="d">
   <stop stop-color="#f9fafb" offset="0"/>
   <stop stop-color="#e5e7eb" offset="1"/>
  </linearGradient>
  <filter id="a">
   <feMorphology operator="dilate" radius=".5"/>
   <feGaussianBlur result="coloredBlur" stdDeviation="2"/>
   <feMerge>
    <feMergeNode in="coloredBlur"/>
    <feMergeNode in="SourceGraphic"/>
   </feMerge>
  </filter>
  <filter id="c">
   <feGaussianBlur result="coloredBlur" stdDeviation="1"/>
   <feMerge>
    <feMergeNode in="coloredBlur"/>
    <feMergeNode in="SourceGraphic"/>
   </feMerge>
  </filter>
 </defs>
 <g transform="matrix(.06 0 0 .06 8 10)" filter="url(#a)">
  <path d="M447.303 128.681c-.427-1.259-.875-3.264-1.408-5.525-3.52-14.315-6.827-27.84-19.904-32.832l-62.08-23.616a38.942 38.942 0 0 0-36.139 4.48l-3.84 3.435c-3.115 3.563-7.339 8.021-10.347 10.88H199.197c-2.539-2.667-5.931-6.592-8.768-10.112l-4.437-4.16c-10.624-7.424-24.149-9.131-36.117-4.523L87.73 90.324c-13.013 4.949-16.277 18.325-19.755 32.512-.533 2.155-.981 4.117-.811 4.117 0 0 .021 0 .043-.021C46.045 168.66-54.606 379.902 39.623 442.26c13.483 8.917 31.424 7.509 43.691-3.456l73.856-66.219c6.507-5.845 14.784-9.067 23.275-9.067h152.853c8.491 0 16.747 3.221 23.275 9.067l73.856 66.219c6.955 6.229 15.616 9.408 24.277 9.408a34.389 34.389 0 0 0 19.883-6.293c83.157-58.347 8.234-239.425-27.286-313.238z" fill="url(#b)"/>
  <g fill="#f0f9ff" filter="url(#c)">
   <rect x="107" y="200" width="106" height="36" rx="20"/>
   <rect x="143" y="164" width="36" height="106" rx="20"/>
   <circle cx="341.47" cy="170.84" r="21.333"/>
   <circle cx="298.8" cy="213.5" r="21.333"/>
   <circle cx="341.47" cy="256.17" r="21.333"/>
   <circle cx="384.14" cy="213.5" r="21.333"/>
  </g>
 </g>
 <text x="50" y="25" fill="url(#d)" font-family="Arial, sans-serif" font-size="18" font-weight="bold">GAMEhub</text>
 <text x="50" y="42" fill="#9ca3af" font-family="Arial, sans-serif" font-size="10" letter-spacing="2">Unblocked games</text>
</svg>
